<svg width="320" height="85" viewBox="0 0 320 85" fill="none" xmlns="http://www.w3.org/2000/svg">
<g filter="url(#filter0_bd_98_3303)">
<rect width="312" height="77" rx="10" fill="url(#paint0_linear_98_3303)" shape-rendering="crispEdges"/>
<rect width="312" height="77" rx="10" fill="black" fill-opacity="0.3" shape-rendering="crispEdges"/>
<path d="M93.816 43.14C92.8733 43.14 92.0707 43.0187 91.408 42.776C90.7453 42.524 90.2413 42.1553 89.896 41.67C89.5507 41.1753 89.378 40.564 89.378 39.836V39.752H91.478V40.004C91.478 40.2933 91.5387 40.5267 91.66 40.704C91.7907 40.8813 92.024 41.012 92.36 41.096C92.696 41.18 93.1813 41.222 93.816 41.222C94.376 41.222 94.8053 41.194 95.104 41.138C95.4027 41.0727 95.608 40.9747 95.72 40.844C95.832 40.7133 95.888 40.5453 95.888 40.34C95.888 40.0507 95.79 39.8407 95.594 39.71C95.4073 39.5793 95.076 39.472 94.6 39.388L91.968 39.01C91.408 38.9167 90.9273 38.7627 90.526 38.548C90.134 38.3333 89.8307 38.0487 89.616 37.694C89.4013 37.33 89.294 36.8913 89.294 36.378C89.294 36.0233 89.3687 35.6733 89.518 35.328C89.6767 34.9827 89.924 34.6747 90.26 34.404C90.596 34.124 91.0347 33.9 91.576 33.732C92.1267 33.564 92.7987 33.48 93.592 33.48C94.5533 33.48 95.342 33.62 95.958 33.9C96.5833 34.1707 97.05 34.558 97.358 35.062C97.666 35.5567 97.82 36.1307 97.82 36.784V36.868H95.706V36.672C95.706 36.3733 95.6407 36.1307 95.51 35.944C95.3887 35.7573 95.16 35.622 94.824 35.538C94.488 35.4447 94.0073 35.398 93.382 35.398C92.878 35.398 92.4813 35.4307 92.192 35.496C91.912 35.5613 91.7113 35.6593 91.59 35.79C91.4687 35.9207 91.408 36.0887 91.408 36.294C91.408 36.4713 91.4453 36.6207 91.52 36.742C91.5947 36.854 91.7113 36.9427 91.87 37.008C92.0287 37.0733 92.2387 37.1293 92.5 37.176L95.132 37.596C95.832 37.708 96.3873 37.89 96.798 38.142C97.218 38.394 97.5213 38.702 97.708 39.066C97.8947 39.4207 97.988 39.8127 97.988 40.242C97.988 40.746 97.848 41.222 97.568 41.67C97.288 42.1087 96.84 42.4633 96.224 42.734C95.608 43.0047 94.8053 43.14 93.816 43.14ZM102.581 43.14C101.788 43.14 101.093 42.9907 100.495 42.692C99.8979 42.3933 99.4359 41.9733 99.1092 41.432C98.7919 40.8813 98.6332 40.2373 98.6332 39.5C98.6332 38.7533 98.7919 38.1093 99.1092 37.568C99.4359 37.0173 99.8979 36.5927 100.495 36.294C101.093 35.9953 101.788 35.846 102.581 35.846C103.337 35.846 104 35.972 104.569 36.224C105.139 36.476 105.582 36.8307 105.899 37.288C106.217 37.736 106.375 38.2633 106.375 38.87V39.066H104.289V38.954C104.289 38.506 104.135 38.1933 103.827 38.016C103.519 37.8293 103.09 37.736 102.539 37.736C101.914 37.736 101.452 37.8667 101.153 38.128C100.864 38.3893 100.719 38.8467 100.719 39.5C100.719 40.1347 100.864 40.5873 101.153 40.858C101.452 41.1193 101.914 41.25 102.539 41.25C103.09 41.25 103.519 41.1613 103.827 40.984C104.135 40.7973 104.289 40.48 104.289 40.032V39.92H106.375V40.116C106.375 40.7227 106.217 41.2547 105.899 41.712C105.582 42.16 105.139 42.51 104.569 42.762C104 43.014 103.337 43.14 102.581 43.14ZM114.363 43H112.403V41.334L112.291 41.306V38.856C112.291 38.3987 112.174 38.0907 111.941 37.932C111.717 37.7733 111.325 37.694 110.765 37.694C110.233 37.694 109.85 37.7733 109.617 37.932C109.383 38.0907 109.267 38.3707 109.267 38.772V38.828H107.153V38.786C107.153 38.2073 107.307 37.6987 107.615 37.26C107.923 36.812 108.357 36.4667 108.917 36.224C109.486 35.972 110.153 35.846 110.919 35.846C111.703 35.846 112.347 35.972 112.851 36.224C113.364 36.476 113.742 36.8307 113.985 37.288C114.237 37.736 114.363 38.268 114.363 38.884V43ZM109.435 43.14C108.679 43.14 108.086 42.972 107.657 42.636C107.227 42.3 107.013 41.8427 107.013 41.264C107.013 40.9093 107.097 40.606 107.265 40.354C107.433 40.102 107.685 39.9013 108.021 39.752C108.357 39.5933 108.777 39.486 109.281 39.43L112.431 39.108V40.312L109.855 40.606C109.603 40.6247 109.416 40.676 109.295 40.76C109.183 40.8347 109.127 40.956 109.127 41.124C109.127 41.3107 109.201 41.446 109.351 41.53C109.5 41.614 109.729 41.656 110.037 41.656C110.541 41.656 110.956 41.6093 111.283 41.516C111.609 41.4227 111.857 41.2733 112.025 41.068C112.202 40.8533 112.291 40.5687 112.291 40.214L112.487 40.2V41.39H112.291C112.132 41.9313 111.81 42.3607 111.325 42.678C110.849 42.986 110.219 43.14 109.435 43.14ZM123.183 43H121.083V39.332C121.083 38.7627 120.953 38.3567 120.691 38.114C120.43 37.862 119.977 37.736 119.333 37.736C118.661 37.736 118.19 37.876 117.919 38.156C117.658 38.4267 117.527 38.8607 117.527 39.458H117.261L117.107 38.142H117.499C117.565 37.75 117.705 37.3813 117.919 37.036C118.134 36.6813 118.437 36.3967 118.829 36.182C119.231 35.958 119.739 35.846 120.355 35.846C120.99 35.846 121.517 35.972 121.937 36.224C122.357 36.4667 122.67 36.798 122.875 37.218C123.081 37.638 123.183 38.1093 123.183 38.632V43ZM117.527 43H115.427V35.986H117.373V38.17L117.527 38.24V43ZM132.002 43H129.902V39.332C129.902 38.7627 129.771 38.3567 129.51 38.114C129.248 37.862 128.796 37.736 128.152 37.736C127.48 37.736 127.008 37.876 126.738 38.156C126.476 38.4267 126.346 38.8607 126.346 39.458H126.08L125.926 38.142H126.318C126.383 37.75 126.523 37.3813 126.738 37.036C126.952 36.6813 127.256 36.3967 127.648 36.182C128.049 35.958 128.558 35.846 129.174 35.846C129.808 35.846 130.336 35.972 130.756 36.224C131.176 36.4667 131.488 36.798 131.694 37.218C131.899 37.638 132.002 38.1093 132.002 38.632V43ZM126.346 43H124.246V35.986H126.192V38.17L126.346 38.24V43ZM135.164 43H133.064V35.986H135.164V43ZM135.164 35.272H133.064V33.62H135.164V35.272ZM144.019 43H141.919V39.332C141.919 38.7627 141.788 38.3567 141.527 38.114C141.266 37.862 140.813 37.736 140.169 37.736C139.497 37.736 139.026 37.876 138.755 38.156C138.494 38.4267 138.363 38.8607 138.363 39.458H138.097L137.943 38.142H138.335C138.4 37.75 138.54 37.3813 138.755 37.036C138.97 36.6813 139.273 36.3967 139.665 36.182C140.066 35.958 140.575 35.846 141.191 35.846C141.826 35.846 142.353 35.972 142.773 36.224C143.193 36.4667 143.506 36.798 143.711 37.218C143.916 37.638 144.019 38.1093 144.019 38.632V43ZM138.363 43H136.263V35.986H138.209V38.17L138.363 38.24V43ZM149.001 45.52C148.245 45.52 147.587 45.408 147.027 45.184C146.477 44.9693 146.052 44.6567 145.753 44.246C145.455 43.8353 145.305 43.336 145.305 42.748H147.405C147.405 43 147.447 43.2007 147.531 43.35C147.625 43.5087 147.797 43.616 148.049 43.672C148.301 43.7373 148.665 43.77 149.141 43.77C149.589 43.77 149.939 43.728 150.191 43.644C150.453 43.56 150.635 43.3967 150.737 43.154C150.84 42.9207 150.891 42.5753 150.891 42.118V37.918L151.031 37.876V35.986H152.991V41.978C152.991 42.7993 152.833 43.4667 152.515 43.98C152.198 44.5027 151.741 44.89 151.143 45.142C150.555 45.394 149.841 45.52 149.001 45.52ZM148.161 42.286C147.461 42.286 146.869 42.1553 146.383 41.894C145.898 41.6327 145.525 41.2593 145.263 40.774C145.002 40.2887 144.871 39.7193 144.871 39.066C144.871 38.4127 145.007 37.848 145.277 37.372C145.548 36.8867 145.935 36.5133 146.439 36.252C146.943 35.9813 147.545 35.846 148.245 35.846C148.964 35.846 149.561 36 150.037 36.308C150.513 36.616 150.807 37.0733 150.919 37.68H151.311L151.157 38.982H150.891C150.891 38.6647 150.817 38.4127 150.667 38.226C150.518 38.03 150.299 37.89 150.009 37.806C149.72 37.7127 149.356 37.666 148.917 37.666C148.469 37.666 148.101 37.7127 147.811 37.806C147.531 37.89 147.321 38.0347 147.181 38.24C147.051 38.436 146.985 38.7113 146.985 39.066C146.985 39.4113 147.051 39.6867 147.181 39.892C147.321 40.0973 147.531 40.2467 147.811 40.34C148.091 40.4333 148.451 40.48 148.889 40.48C149.561 40.48 150.061 40.3773 150.387 40.172C150.723 39.9667 150.891 39.6213 150.891 39.136H151.157V40.536H150.779C150.667 41.0587 150.397 41.4833 149.967 41.81C149.538 42.1273 148.936 42.286 148.161 42.286ZM164.133 43H162.033V39.332C162.033 38.744 161.893 38.3333 161.613 38.1C161.342 37.8573 160.876 37.736 160.213 37.736C159.746 37.736 159.378 37.8013 159.107 37.932C158.836 38.0627 158.645 38.2587 158.533 38.52C158.421 38.772 158.365 39.094 158.365 39.486H158.057L158.085 38.128H158.477C158.552 37.7267 158.696 37.3533 158.911 37.008C159.126 36.6627 159.429 36.3827 159.821 36.168C160.222 35.9533 160.722 35.846 161.319 35.846C161.944 35.846 162.467 35.972 162.887 36.224C163.307 36.476 163.62 36.8167 163.825 37.246C164.03 37.6753 164.133 38.1607 164.133 38.702V43ZM158.365 43H156.265V33.62H158.365V43ZM172.277 43H170.317V41.334L170.205 41.306V38.856C170.205 38.3987 170.088 38.0907 169.855 37.932C169.631 37.7733 169.239 37.694 168.679 37.694C168.147 37.694 167.764 37.7733 167.531 37.932C167.297 38.0907 167.181 38.3707 167.181 38.772V38.828H165.067V38.786C165.067 38.2073 165.221 37.6987 165.529 37.26C165.837 36.812 166.271 36.4667 166.831 36.224C167.4 35.972 168.067 35.846 168.833 35.846C169.617 35.846 170.261 35.972 170.765 36.224C171.278 36.476 171.656 36.8307 171.899 37.288C172.151 37.736 172.277 38.268 172.277 38.884V43ZM167.349 43.14C166.593 43.14 166 42.972 165.571 42.636C165.141 42.3 164.927 41.8427 164.927 41.264C164.927 40.9093 165.011 40.606 165.179 40.354C165.347 40.102 165.599 39.9013 165.935 39.752C166.271 39.5933 166.691 39.486 167.195 39.43L170.345 39.108V40.312L167.769 40.606C167.517 40.6247 167.33 40.676 167.209 40.76C167.097 40.8347 167.041 40.956 167.041 41.124C167.041 41.3107 167.115 41.446 167.265 41.53C167.414 41.614 167.643 41.656 167.951 41.656C168.455 41.656 168.87 41.6093 169.197 41.516C169.523 41.4227 169.771 41.2733 169.939 41.068C170.116 40.8533 170.205 40.5687 170.205 40.214L170.401 40.2V41.39H170.205C170.046 41.9313 169.724 42.3607 169.239 42.678C168.763 42.986 168.133 43.14 167.349 43.14ZM176.883 43.14C175.707 43.14 174.802 42.9207 174.167 42.482C173.533 42.034 173.215 41.404 173.215 40.592V40.55H175.315V40.676C175.315 40.9933 175.427 41.208 175.651 41.32C175.885 41.4227 176.3 41.474 176.897 41.474C177.457 41.474 177.826 41.4273 178.003 41.334C178.19 41.2313 178.283 41.0773 178.283 40.872C178.283 40.676 178.213 40.5407 178.073 40.466C177.933 40.382 177.658 40.312 177.247 40.256L175.273 40.018C174.573 39.9433 174.032 39.7473 173.649 39.43C173.276 39.1127 173.089 38.6553 173.089 38.058C173.089 37.6473 173.211 37.2787 173.453 36.952C173.696 36.616 174.069 36.35 174.573 36.154C175.087 35.9487 175.745 35.846 176.547 35.846C177.313 35.846 177.961 35.944 178.493 36.14C179.035 36.3267 179.445 36.6113 179.725 36.994C180.005 37.3767 180.145 37.8527 180.145 38.422V38.464H178.045V38.38C178.045 38.184 178.003 38.0253 177.919 37.904C177.845 37.7733 177.691 37.6753 177.457 37.61C177.233 37.5447 176.907 37.512 176.477 37.512C175.955 37.512 175.605 37.5633 175.427 37.666C175.25 37.7593 175.161 37.918 175.161 38.142C175.161 38.3193 175.231 38.4547 175.371 38.548C175.521 38.632 175.824 38.7067 176.281 38.772L177.779 38.954C178.713 39.0567 179.375 39.2713 179.767 39.598C180.159 39.9247 180.355 40.3773 180.355 40.956C180.355 41.3947 180.215 41.7773 179.935 42.104C179.655 42.4307 179.259 42.6873 178.745 42.874C178.232 43.0513 177.611 43.14 176.883 43.14ZM188.305 43H186.569C185.747 43 185.103 42.7993 184.637 42.398C184.17 41.9967 183.937 41.3527 183.937 40.466V34.628H186.037V40.228C186.037 40.5827 186.111 40.8207 186.261 40.942C186.419 41.054 186.681 41.11 187.045 41.11H188.305V43ZM188.305 37.722H182.831V35.986H188.305V37.722ZM191.191 43H189.091V35.986H191.191V43ZM191.191 35.272H189.091V33.62H191.191V35.272ZM205.086 43H202.986V39.332C202.986 38.7533 202.87 38.3427 202.636 38.1C202.403 37.8573 201.983 37.736 201.376 37.736C200.742 37.736 200.308 37.8713 200.074 38.142C199.85 38.4127 199.738 38.8513 199.738 39.458H199.472L199.304 38.142H199.71C199.766 37.7407 199.888 37.3673 200.074 37.022C200.27 36.6767 200.555 36.3967 200.928 36.182C201.311 35.958 201.801 35.846 202.398 35.846C203.005 35.846 203.504 35.9673 203.896 36.21C204.298 36.4527 204.596 36.784 204.792 37.204C204.988 37.624 205.086 38.1 205.086 38.632V43ZM194.39 43H192.29V35.986H194.236V38.17L194.39 38.24V43ZM199.738 43H197.638V39.332C197.638 38.7533 197.522 38.3427 197.288 38.1C197.055 37.8573 196.635 37.736 196.028 37.736C195.384 37.736 194.95 37.8713 194.726 38.142C194.502 38.4127 194.39 38.8513 194.39 39.458H194.124L193.97 38.114H194.348C194.414 37.722 194.54 37.358 194.726 37.022C194.913 36.6767 195.188 36.3967 195.552 36.182C195.916 35.958 196.392 35.846 196.98 35.846C197.587 35.846 198.082 35.972 198.464 36.224C198.856 36.476 199.146 36.812 199.332 37.232C199.519 37.652 199.612 38.1187 199.612 38.632H199.738V43ZM209.878 43.14C209.103 43.14 208.417 43.0093 207.82 42.748C207.222 42.4867 206.76 42.0853 206.434 41.544C206.107 41.0027 205.944 40.3213 205.944 39.5C205.944 38.7533 206.107 38.1093 206.434 37.568C206.76 37.0173 207.213 36.5927 207.792 36.294C208.38 35.9953 209.061 35.846 209.836 35.846C210.601 35.846 211.268 35.9767 211.838 36.238C212.416 36.4993 212.864 36.8867 213.182 37.4C213.499 37.904 213.658 38.52 213.658 39.248C213.658 39.3693 213.653 39.4813 213.644 39.584C213.634 39.6867 213.62 39.7987 213.602 39.92H207.302V38.814H212.118L211.642 39.5C211.642 39.4067 211.642 39.318 211.642 39.234C211.642 39.15 211.642 39.066 211.642 38.982C211.642 38.45 211.497 38.0673 211.208 37.834C210.918 37.6007 210.447 37.484 209.794 37.484C209.084 37.484 208.59 37.624 208.31 37.904C208.03 38.1747 207.89 38.6087 207.89 39.206V39.738C207.89 40.3353 208.03 40.774 208.31 41.054C208.59 41.3247 209.089 41.46 209.808 41.46C210.424 41.46 210.858 41.3807 211.11 41.222C211.362 41.0633 211.488 40.8347 211.488 40.536V40.396H213.588V40.55C213.588 41.054 213.434 41.502 213.126 41.894C212.818 42.286 212.384 42.594 211.824 42.818C211.273 43.0327 210.624 43.14 209.878 43.14ZM217.684 43.14C216.956 43.14 216.34 42.9907 215.836 42.692C215.332 42.3933 214.95 41.9733 214.688 41.432C214.427 40.8813 214.296 40.2373 214.296 39.5C214.296 38.7533 214.422 38.1093 214.674 37.568C214.936 37.0173 215.309 36.5927 215.794 36.294C216.289 35.9953 216.882 35.846 217.572 35.846C218.403 35.846 219.042 36.0327 219.49 36.406C219.938 36.7793 220.218 37.26 220.33 37.848H220.722V39.43H220.456C220.456 38.8233 220.279 38.394 219.924 38.142C219.579 37.89 219.07 37.764 218.398 37.764C217.95 37.764 217.577 37.82 217.278 37.932C216.989 38.044 216.774 38.226 216.634 38.478C216.494 38.7207 216.424 39.0613 216.424 39.5C216.424 39.92 216.494 40.256 216.634 40.508C216.774 40.76 216.989 40.942 217.278 41.054C217.577 41.166 217.95 41.222 218.398 41.222C218.846 41.222 219.22 41.166 219.518 41.054C219.826 40.942 220.06 40.7647 220.218 40.522C220.377 40.27 220.456 39.9433 220.456 39.542H220.722L220.862 41.054H220.484C220.354 41.7447 220.055 42.2673 219.588 42.622C219.122 42.9673 218.487 43.14 217.684 43.14ZM222.556 43H220.596V40.928L220.456 40.746V33.62H222.556V43ZM229.566 43.14C228.772 43.14 228.072 42.9907 227.466 42.692C226.868 42.3933 226.402 41.9733 226.066 41.432C225.73 40.8813 225.562 40.2373 225.562 39.5C225.562 38.7533 225.73 38.1093 226.066 37.568C226.402 37.0173 226.868 36.5927 227.466 36.294C228.072 35.9953 228.772 35.846 229.566 35.846C230.368 35.846 231.068 35.9953 231.666 36.294C232.263 36.5927 232.73 37.0173 233.066 37.568C233.402 38.1093 233.57 38.7533 233.57 39.5C233.57 40.2373 233.402 40.8813 233.066 41.432C232.73 41.9733 232.263 42.3933 231.666 42.692C231.068 42.9907 230.368 43.14 229.566 43.14ZM229.566 41.278C230.275 41.278 230.77 41.138 231.05 40.858C231.339 40.5687 231.484 40.116 231.484 39.5C231.484 38.8747 231.339 38.4173 231.05 38.128C230.77 37.8387 230.275 37.694 229.566 37.694C228.856 37.694 228.357 37.8387 228.068 38.128C227.788 38.4173 227.648 38.8747 227.648 39.5C227.648 40.116 227.788 40.5687 228.068 40.858C228.357 41.138 228.856 41.278 229.566 41.278ZM237.325 43.14C236.672 43.14 236.126 43.0187 235.687 42.776C235.258 42.524 234.936 42.188 234.721 41.768C234.516 41.348 234.413 40.8767 234.413 40.354V35.986H236.513V39.654C236.513 40.214 236.649 40.6247 236.919 40.886C237.19 41.138 237.657 41.264 238.319 41.264C239.01 41.264 239.491 41.1287 239.761 40.858C240.041 40.578 240.181 40.1393 240.181 39.542L240.447 39.528L240.601 40.858H240.209C240.153 41.25 240.013 41.6187 239.789 41.964C239.575 42.3093 239.262 42.594 238.851 42.818C238.45 43.0327 237.941 43.14 237.325 43.14ZM242.281 43H240.321V40.83L240.181 40.76V35.986H242.281V43ZM248.297 43H246.561C245.74 43 245.096 42.7993 244.629 42.398C244.162 41.9967 243.929 41.3527 243.929 40.466V34.628H246.029V40.228C246.029 40.5827 246.104 40.8207 246.253 40.942C246.412 41.054 246.673 41.11 247.037 41.11H248.297V43ZM248.297 37.722H242.823V35.986H248.297V37.722Z" fill="#F6F6F6"/>
<path d="M301 17H299.564L296.965 13.7223L294.436 17H293L296.231 12.8523L293 9H294.436L297.023 12.0315L299.564 9H301L297.752 12.8906L301 17Z" fill="#F6F6F6"/>
<mask id="mask0_98_3303" style="mask-type:alpha" maskUnits="userSpaceOnUse" x="62" y="27" width="24" height="24">
<rect x="62" y="27" width="24" height="24" fill="#D9D9D9"/>
</mask>
<g mask="url(#mask0_98_3303)">
<path d="M72.8571 40H74.852V35H72.8571V40ZM73.8546 43C74.1372 43 74.3741 42.9042 74.5653 42.7125C74.7565 42.5208 74.852 42.2833 74.852 42C74.852 41.7167 74.7565 41.4792 74.5653 41.2875C74.3741 41.0958 74.1372 41 73.8546 41C73.572 41 73.3351 41.0958 73.1439 41.2875C72.9527 41.4792 72.8571 41.7167 72.8571 42C72.8571 42.2833 72.9527 42.5208 73.1439 42.7125C73.3351 42.9042 73.572 43 73.8546 43ZM65.875 46V44H67.8699V37C67.8699 35.6167 68.2855 34.3875 69.1167 33.3125C69.9479 32.2375 71.0285 31.5333 72.3584 31.2V30.5C72.3584 30.0833 72.5039 29.7292 72.7948 29.4375C73.0857 29.1458 73.439 29 73.8546 29C74.2702 29 74.6235 29.1458 74.9144 29.4375C75.2053 29.7292 75.3508 30.0833 75.3508 30.5V31.2C76.6807 31.5333 77.7613 32.2375 78.5925 33.3125C79.4237 34.3875 79.8393 35.6167 79.8393 37V44H81.8342V46H65.875ZM73.8546 49C73.306 49 72.8364 48.8042 72.4457 48.4125C72.055 48.0208 71.8597 47.55 71.8597 47H75.8495C75.8495 47.55 75.6542 48.0208 75.2635 48.4125C74.8728 48.8042 74.4032 49 73.8546 49ZM69.8648 44H77.8444V37C77.8444 35.9 77.4537 34.9583 76.6724 34.175C75.8911 33.3917 74.9518 33 73.8546 33C72.7574 33 71.8181 33.3917 71.0368 34.175C70.2555 34.9583 69.8648 35.9 69.8648 37V44Z" fill="#F6F6F6"/>
</g>
<circle cx="297" cy="13" r="9.5" stroke="url(#paint1_linear_98_3303)"/>
<rect x="0.5" y="0.5" width="311" height="76" rx="9.5" stroke="url(#paint2_linear_98_3303)" shape-rendering="crispEdges"/>
</g>
<defs>
<filter id="filter0_bd_98_3303" x="-72" y="-72" width="456" height="221" filterUnits="userSpaceOnUse" color-interpolation-filters="sRGB">
<feFlood flood-opacity="0" result="BackgroundImageFix"/>
<feGaussianBlur in="BackgroundImageFix" stdDeviation="36"/>
<feComposite in2="SourceAlpha" operator="in" result="effect1_backgroundBlur_98_3303"/>
<feColorMatrix in="SourceAlpha" type="matrix" values="0 0 0 0 0 0 0 0 0 0 0 0 0 0 0 0 0 0 127 0" result="hardAlpha"/>
<feOffset dx="4" dy="4"/>
<feGaussianBlur stdDeviation="2"/>
<feComposite in2="hardAlpha" operator="out"/>
<feColorMatrix type="matrix" values="0 0 0 0 0.329412 0 0 0 0 0.329412 0 0 0 0 0.329412 0 0 0 0.16 0"/>
<feBlend mode="normal" in2="effect1_backgroundBlur_98_3303" result="effect2_dropShadow_98_3303"/>
<feBlend mode="normal" in="SourceGraphic" in2="effect2_dropShadow_98_3303" result="shape"/>
</filter>
<linearGradient id="paint0_linear_98_3303" x1="-17.1053" y1="-15.8278" x2="306.943" y2="218.662" gradientUnits="userSpaceOnUse">
<stop stop-color="white" stop-opacity="0.08"/>
<stop offset="1" stop-color="white" stop-opacity="0.22"/>
</linearGradient>
<linearGradient id="paint1_linear_98_3303" x1="288.299" y1="0.393165" x2="314.877" y2="22.6558" gradientUnits="userSpaceOnUse">
<stop stop-color="white"/>
<stop offset="0.510417" stop-color="white" stop-opacity="0.5"/>
<stop offset="1" stop-color="white"/>
</linearGradient>
<linearGradient id="paint2_linear_98_3303" x1="-19.4999" y1="-64.9688" x2="79.3971" y2="226.451" gradientUnits="userSpaceOnUse">
<stop stop-color="white"/>
<stop offset="0.521894" stop-color="white" stop-opacity="0"/>
<stop offset="1" stop-color="white"/>
</linearGradient>
</defs>
</svg>
