<svg width="20" height="20" viewBox="0 0 20 20" fill="none" xmlns="http://www.w3.org/2000/svg">
<path d="M4.99998 18.3333C4.54165 18.3333 4.14915 18.17 3.82248 17.8433C3.49581 17.5166 3.33276 17.1244 3.33331 16.6666V8.33331C3.33331 7.87498 3.49665 7.48248 3.82331 7.15581C4.14998 6.82915 4.5422 6.66609 4.99998 6.66665H5.83331V4.99998C5.83331 3.8472 6.2397 2.86442 7.05248 2.05165C7.86526 1.23887 8.84776 0.832758 9.99998 0.833314C11.1528 0.833314 12.1355 1.2397 12.9483 2.05248C13.7611 2.86526 14.1672 3.84776 14.1666 4.99998V6.66665H15C15.4583 6.66665 15.8508 6.82998 16.1775 7.15665C16.5041 7.48331 16.6672 7.87554 16.6666 8.33331V16.6666C16.6666 17.125 16.5033 17.5175 16.1766 17.8441C15.85 18.1708 15.4578 18.3339 15 18.3333H4.99998ZM9.99998 14.1666C10.4583 14.1666 10.8508 14.0033 11.1775 13.6766C11.5041 13.35 11.6672 12.9578 11.6666 12.5C11.6666 12.0416 11.5033 11.6491 11.1766 11.3225C10.85 10.9958 10.4578 10.8328 9.99998 10.8333C9.54165 10.8333 9.14915 10.9966 8.82248 11.3233C8.49581 11.65 8.33276 12.0422 8.33331 12.5C8.33331 12.9583 8.49665 13.3508 8.82331 13.6775C9.14998 14.0041 9.5422 14.1672 9.99998 14.1666ZM7.49998 6.66665H12.5V4.99998C12.5 4.30554 12.2569 3.71526 11.7708 3.22915C11.2847 2.74304 10.6944 2.49998 9.99998 2.49998C9.30554 2.49998 8.71526 2.74304 8.22915 3.22915C7.74304 3.71526 7.49998 4.30554 7.49998 4.99998V6.66665Z" fill="#F6F6F6"/>
</svg>
