<svg width="32" height="32" viewBox="0 0 32 32" fill="none" xmlns="http://www.w3.org/2000/svg">
<path fill-rule="evenodd" clip-rule="evenodd" d="M6.772 6.75869C11.832 1.70536 20.0587 1.7587 25.1493 6.8507C30.2427 11.944 30.296 20.1747 25.2347 25.2347C20.1747 30.2947 11.944 30.2427 6.85067 25.1494C5.418 23.7226 4.33553 21.9832 3.68823 20.0677C3.04094 18.1522 2.84644 16.1127 3.12 14.1094C3.15589 13.8464 3.29476 13.6086 3.50605 13.448C3.71734 13.2875 3.98375 13.2175 4.24667 13.2534C4.50958 13.2893 4.74748 13.4281 4.90801 13.6394C5.06854 13.8507 5.13856 14.1171 5.10267 14.38C4.87045 16.0778 5.03508 17.8062 5.58361 19.4296C6.13214 21.053 7.04963 22.5271 8.264 23.736C12.5907 28.0614 19.5547 28.0867 23.8213 23.8214C28.0867 19.5547 28.0613 12.5907 23.736 8.26403C19.412 3.94136 12.452 3.91336 8.18533 8.17336L9.18267 8.17736C9.31399 8.17797 9.4439 8.20445 9.56499 8.25527C9.68609 8.30609 9.79598 8.38026 9.88841 8.47356C9.98083 8.56685 10.054 8.67743 10.1037 8.79899C10.1534 8.92055 10.1786 9.05071 10.178 9.18203C10.1774 9.31335 10.1509 9.44327 10.1001 9.56436C10.0493 9.68545 9.9751 9.79534 9.88181 9.88777C9.78851 9.98019 9.67793 10.0533 9.55637 10.103C9.43481 10.1527 9.30466 10.178 9.17333 10.1774L5.77867 10.1614C5.51507 10.16 5.26268 10.0545 5.07641 9.86801C4.89014 9.68149 4.78505 9.42896 4.784 9.16536L4.76667 5.77336C4.76597 5.64204 4.79114 5.51187 4.84075 5.39027C4.89035 5.26868 4.96343 5.15805 5.05579 5.06469C5.14815 4.97134 5.258 4.89709 5.37906 4.84619C5.50011 4.79529 5.63001 4.76873 5.76133 4.76803C5.89266 4.76733 6.02283 4.7925 6.14442 4.84211C6.26602 4.89172 6.37665 4.96479 6.47 5.05715C6.56336 5.14951 6.6376 5.25936 6.68851 5.38042C6.73941 5.50147 6.76597 5.63137 6.76667 5.7627L6.772 6.76003V6.75869ZM15.9987 9.66536C16.2639 9.66536 16.5182 9.77072 16.7058 9.95825C16.8933 10.1458 16.9987 10.4001 16.9987 10.6654V15.5854L20.04 18.6254C20.1356 18.7176 20.2118 18.8279 20.2642 18.9499C20.3167 19.0718 20.3444 19.203 20.3456 19.3358C20.3468 19.4686 20.3216 19.6003 20.2713 19.7232C20.2211 19.8461 20.1469 19.9578 20.0531 20.0517C19.9592 20.1457 19.8476 20.22 19.7247 20.2703C19.6019 20.3207 19.4702 20.346 19.3374 20.3449C19.2046 20.3438 19.0734 20.3163 18.9514 20.264C18.8293 20.2116 18.719 20.1355 18.6267 20.04L15 16.4134V10.6667C15 10.4015 15.1054 10.1471 15.2929 9.95959C15.4804 9.77205 15.7348 9.66669 16 9.66669L15.9987 9.66536Z" fill="#F6F6F6"/>
</svg>
