<svg width="135" height="145" viewBox="0 0 135 145" fill="none" xmlns="http://www.w3.org/2000/svg">
<g filter="url(#filter0_bd_98_3177)">
<path d="M58.75 12.7839C64.1645 9.65779 70.8355 9.65779 76.25 12.7839L107.912 31.0642C113.327 34.1903 116.662 39.9675 116.662 46.2197V82.7803C116.662 89.0325 113.327 94.8097 107.912 97.9358L76.25 116.216C70.8355 119.342 64.1645 119.342 58.75 116.216L27.0875 97.9358C21.673 94.8097 18.3375 89.0325 18.3375 82.7803V46.2197C18.3375 39.9675 21.673 34.1903 27.0875 31.0642L58.75 12.7839Z" stroke="#FFFFEA" stroke-opacity="0.67" stroke-width="3" shape-rendering="crispEdges"/>
<path d="M58.75 12.7839C64.1645 9.65779 70.8355 9.65779 76.25 12.7839L107.912 31.0642C113.327 34.1903 116.662 39.9675 116.662 46.2197V82.7803C116.662 89.0325 113.327 94.8097 107.912 97.9358L76.25 116.216C70.8355 119.342 64.1645 119.342 58.75 116.216L27.0875 97.9358C21.673 94.8097 18.3375 89.0325 18.3375 82.7803V46.2197C18.3375 39.9675 21.673 34.1903 27.0875 31.0642L58.75 12.7839Z" stroke="url(#paint0_linear_98_3177)" stroke-width="3" shape-rendering="crispEdges"/>
</g>
<path d="M44.6344 72.24C49.7464 72.24 51.7864 69.888 51.7864 67.272C51.7864 65.064 50.4904 63.312 46.8904 62.736L42.3784 62.016C41.0344 61.776 40.5064 61.44 40.5064 60.504C40.5064 59.472 41.2984 58.968 43.8904 58.968C47.0824 58.968 47.8744 59.616 47.8744 61.152V61.488H51.4984V61.344C51.4984 57.96 49.1944 55.68 44.2504 55.68C38.8504 55.68 36.8824 58.224 36.8824 60.648C36.8824 63.264 38.5864 64.704 41.4664 65.16L45.9784 65.808C47.6344 66.096 48.1864 66.456 48.1864 67.44C48.1864 68.52 47.5144 68.952 44.6344 68.952C41.3704 68.952 40.6264 68.352 40.6264 66.864V66.432H37.0264V66.576C37.0264 70.32 39.7624 72.24 44.6344 72.24ZM61.4845 72V68.76H59.3245C58.0525 68.76 57.5965 68.448 57.5965 67.248V62.952H61.4845V59.976H57.5965V57.648H53.9965V59.976H52.1005V62.952H53.9965V67.656C53.9965 70.68 55.7005 72 58.5085 72H61.4845ZM66.2888 72.24C68.9528 72.24 70.6328 71.112 71.1848 69.24H71.3768V72H74.7368V64.944C74.7368 61.8 72.8408 59.736 68.8328 59.736C64.8728 59.736 62.3768 61.8 62.3768 64.776V64.848H66.0008V64.752C66.0008 63.384 66.7448 62.904 68.5688 62.904C70.4888 62.904 71.1848 63.336 71.1848 64.896V65.352L66.0248 65.88C63.4568 66.144 62.1368 67.248 62.1368 69.024C62.1368 71.04 63.6968 72.24 66.2888 72.24ZM65.7608 68.784C65.7608 68.208 66.1448 67.968 67.0088 67.896L71.1848 67.416C71.0888 69.12 69.7688 69.696 67.3208 69.696C66.2648 69.696 65.7608 69.432 65.7608 68.784ZM79.9216 72V65.04C79.9216 63.528 80.4976 62.784 82.1056 62.784C83.5696 62.784 84.0976 63.36 84.0976 64.68V65.928H87.6976V63.936C87.6976 61.584 86.5936 59.736 83.9056 59.736C81.4816 59.736 80.2096 61.224 79.8736 63.168H79.6576V59.976H76.3216V72H79.9216ZM97.2333 72V68.76H95.0733C93.8013 68.76 93.3453 68.448 93.3453 67.248V62.952H97.2333V59.976H93.3453V57.648H89.7453V59.976H87.8493V62.952H89.7453V67.656C89.7453 70.68 91.4493 72 94.2573 72H97.2333Z" fill="#FFFFEA"/>
<defs>
<filter id="filter0_bd_98_3177" x="0.837524" y="0.939331" width="133.325" height="143.121" filterUnits="userSpaceOnUse" color-interpolation-filters="sRGB">
<feFlood flood-opacity="0" result="BackgroundImageFix"/>
<feGaussianBlur in="BackgroundImageFix" stdDeviation="4"/>
<feComposite in2="SourceAlpha" operator="in" result="effect1_backgroundBlur_98_3177"/>
<feColorMatrix in="SourceAlpha" type="matrix" values="0 0 0 0 0 0 0 0 0 0 0 0 0 0 0 0 0 0 127 0" result="hardAlpha"/>
<feOffset dy="8"/>
<feGaussianBlur stdDeviation="8"/>
<feComposite in2="hardAlpha" operator="out"/>
<feColorMatrix type="matrix" values="0 0 0 0 0.94902 0 0 0 0 0.0509804 0 0 0 0 0.0627451 0 0 0 0.15 0"/>
<feBlend mode="normal" in2="effect1_backgroundBlur_98_3177" result="effect2_dropShadow_98_3177"/>
<feBlend mode="normal" in="SourceGraphic" in2="effect2_dropShadow_98_3177" result="shape"/>
</filter>
<linearGradient id="paint0_linear_98_3177" x1="16.5974" y1="-13.4999" x2="146.935" y2="14.5347" gradientUnits="userSpaceOnUse">
<stop stop-color="#E51519"/>
<stop offset="0.411458" stop-color="white" stop-opacity="0"/>
<stop offset="1" stop-color="#F20D10"/>
</linearGradient>
</defs>
</svg>
